<?xml version="1.0" encoding="utf-8"?>
<!-- Generator: Adobe Illustrator 21.0.0, SVG Export Plug-In . SVG Version: 6.00 Build 0)  -->
<svg version="1.1" id="Layer_1" xmlns="http://www.w3.org/2000/svg" xmlns:xlink="http://www.w3.org/1999/xlink" x="0px" y="0px" viewBox="0 0 600 180" style="enable-background:new 0 0 600 180;" xml:space="preserve">
<style type="text/css">
	.st0{fill:#135D90;}
</style>
<g>
	<path class="st0" d="M600,9c-1.8,0.7-3.7,1.2-5.5,2.1c-80.1,41.1-160.1,82.3-240.2,123.5c-1.3,0.7-2.6,1.2-4.2,1.3
		c3.4-2.2,6.8-4.5,10.3-6.7c65.1-42,130.1-84,195.2-126c1.5-1,2.9-2.2,4.4-3.2c13.3,0,26.7,0,40,0C600,3.1,600,6,600,9z"/>
	<path class="st0" d="M39,0c1.8,1.4,3.6,2.9,5.5,4.1c66,42.6,132.1,85.3,198.1,127.9c1.5,1,2.9,2,4,3.7C164.4,93.5,82.2,51.2,0,9
		c0-3,0-6,0-9C13,0,26,0,39,0z"/>
	<path class="st0" d="M600,70c-80.8,25-161.6,50-242.3,75c-0.1-0.3-0.3-0.6-0.4-0.9c1.7-0.7,3.3-1.4,5-2.1
		c78.3-33,156.7-65.9,235-98.9c0.9-0.4,1.9-0.7,2.8-1C600,51.3,600,60.7,600,70z"/>
	<path class="st0" d="M0,42c19.6,8.4,39.1,16.8,58.7,25.1c60.7,25.6,121.4,51.1,182.1,76.6c1.2,0.5,2.4,1.1,3.4,2.2
		c-13.6-4.2-27.2-8.4-40.8-12.6C137.2,112.8,71,92.3,4.8,71.8C3.3,71.4,1.6,71.3,0,71C0,61.3,0,51.7,0,42z"/>
	<path class="st0" d="M600,125c-17.5,2.3-34.9,4.5-52.4,6.8c-25.1,3.2-50.1,6.3-75.2,9.5c-22.4,2.8-44.8,5.7-67.3,8.5
		c-14.8,1.9-29.7,3.8-44.5,5.7c-1.5,0.2-3,0.3-4.5-0.1c17.5-4,35-8,52.5-12c62.5-14.2,125-28.4,187.5-42.6c1.3-0.3,2.6-0.5,3.9-0.7
		C600,108.3,600,116.7,600,125z"/>
	<path class="st0" d="M0,100c80.8,18.4,161.5,36.8,242.3,55.2c0,0.2-0.1,0.4-0.1,0.6c-12-1.5-24-3-35.9-4.5
		c-22.6-2.9-45.2-5.7-67.8-8.6c-22.4-2.8-44.8-5.7-67.3-8.5c-22.3-2.8-44.5-5.7-66.8-8.4c-1.4-0.2-3,0.1-4.4,0.2
		C0,117.3,0,108.7,0,100z"/>
	<path class="st0" d="M600,178c-22.1-1.1-44.2-2.2-66.3-3.3c-30.1-1.5-60.2-3.1-90.3-4.6c-22.9-1.1-45.9-2.2-68.8-3.3
		c-7.3-0.4-14.6-0.7-22.9-1.2c22.7-1.2,44.5-2.3,66.3-3.4c32.1-1.6,64.2-3.2,96.3-4.8c22.3-1.1,44.6-2.1,66.8-3.2
		c6.3-0.3,12.6-0.8,18.9-1.2C600,161.3,600,169.7,600,178z"/>
	<path class="st0" d="M0,153c18.8,1.1,37.5,2.2,56.3,3.2c31.2,1.6,62.5,3.2,93.7,4.7c22.9,1.1,45.9,2.2,68.8,3.3
		c9,0.4,17.9,0.9,26.9,1.5c-19.4,1-38.9,2.1-58.3,3c-32.4,1.6-64.8,3.2-97.2,4.8c-22.6,1.1-45.2,2.1-67.8,3.2
		c-7.5,0.4-15,0.8-22.4,1.2C0,169.7,0,161.3,0,153z"/>
	<path class="st0" d="M118,0c1.5,1.7,2.9,3.5,4.6,5.1C166,45.4,209.5,85.7,253,126c0.6,0.6,1.2,1.1,1.3,2.3
		c-3.6-2.7-7.1-5.4-10.7-8.1C192.2,81.1,140.8,42,89.3,3c-1.2-0.9-2.2-2-3.3-3C96.7,0,107.3,0,118,0z"/>
	<path class="st0" d="M513,0c-18.1,13.9-36.2,27.7-54.3,41.5c-36.4,27.7-72.9,55.4-109.4,83.1c-1.3,1-2.6,1.8-3.9,2.8
		c-0.3-0.3-0.6-0.6-0.9-0.9c1.3-1,2.7-1.8,3.8-2.9c43.1-39.9,86.3-79.9,129.4-119.9c1.2-1.1,2.2-2.4,3.3-3.7C491.7,0,502.3,0,513,0z
		"/>
	<path class="st0" d="M449,0c-18.4,20-36.7,40-55.1,59.9c-17.3,18.7-34.6,37.4-51.9,56.1c-1.2,1.3-2.5,2.6-4.3,3.5
		C367.7,79.7,397.9,39.8,428,0C435,0,442,0,449,0z"/>
	<path class="st0" d="M171,0c12.8,17,25.6,34.1,38.4,51.1c15.9,21,31.8,41.9,47.7,62.9c1.2,1.5,2.3,3.1,3.4,4.6
		c-0.4,0.4-0.8,0.8-1.3,1.2c-0.8-1.2-1.4-2.6-2.3-3.7C222.2,78.6,187.5,41.1,152.7,3.5c-1-1.1-1.8-2.3-2.7-3.5C157,0,164,0,171,0z"
		/>
	<path class="st0" d="M212,0c9.1,17.9,18.1,35.9,27.2,53.8C249,72.9,258.8,92,268.6,111c0.6,1.1,1.1,2.3,1.1,3.8
		c-1.7-2.6-3.4-5.1-5.1-7.7c-22.2-34.4-44.3-68.8-66.5-103.2c-0.8-1.3-1.5-2.6-2.2-3.9C201.3,0,206.7,0,212,0z"/>
	<path class="st0" d="M403,0c-22.9,35.6-45.7,71.1-68.6,106.7c-1.7,2.7-3.5,5.4-5.9,7.8c7-13.7,14.1-27.4,21.1-41.1
		C362.1,48.9,374.5,24.4,387,0C392.3,0,397.7,0,403,0z"/>
	<path class="st0" d="M246,0c5.4,17.9,10.8,35.9,16.3,53.8c5.8,18.9,11.6,37.7,16.8,56.8c-3.8-9-7.5-17.9-11.3-26.9
		c-11.1-26.4-22.2-52.7-33.3-79.1c-0.6-1.5-1-3.1-1.5-4.7C237.3,0,241.7,0,246,0z"/>
	<path class="st0" d="M366,0c-7.8,18.9-15.6,37.8-23.5,56.7c-6.5,15.6-13.2,31.3-19.7,46.9c-0.6,1.5-1.3,2.9-2.8,4
		c4.2-13.6,8.4-27.2,12.5-40.8C339.4,44.5,346.2,22.2,353,0C357.3,0,361.7,0,366,0z"/>
	<path class="st0" d="M276,0c4.6,36.4,9.2,72.8,13.8,109.2c-0.2,0-0.4,0.1-0.6,0.1c-3-13.2-6-26.3-9-39.5
		c-5.1-22.3-10.1-44.7-15.2-67c-0.2-1-0.7-1.9-1-2.8C268,0,272,0,276,0z"/>
	<path class="st0" d="M335,0c-2.7,11.3-5.6,22.5-8.2,33.8c-5.8,25.1-11.4,50.2-17.6,75.2c1.4-11.6,2.8-23.2,4.2-34.9
		c3-23.9,6-47.8,9-71.7c0.1-0.8,0.4-1.6,0.6-2.4C327,0,331,0,335,0z"/>
	<path class="st0" d="M305,0c-1.8,37.6-3.6,75.1-5.5,112.7c-0.1,0-0.2,0-0.3,0C297.5,75.1,295.8,37.6,294,0C297.7,0,301.3,0,305,0z"
		/>
</g>
</svg>
